<?xml version="1.0" encoding="utf-8"?>
<!-- Generator: Adobe Illustrator 25.4.1, SVG Export Plug-In . SVG Version: 6.00 Build 0)  -->
<svg version="1.1" id="cm-logograf" xmlns="http://www.w3.org/2000/svg" xmlns:xlink="http://www.w3.org/1999/xlink" x="0px"
	 y="0px" viewBox="0 0 24 24" style="enable-background:new 0 0 24 24;" xml:space="preserve">
<g>
	<g>
		<path fill="#ffffff" d="M24,23.7c0,0-3.3-0.8-4.4-4.7c0.7-0.7,1.4-1.7,1.9-2.8c0.1-0.1,0.1-0.2,0.1-0.2l-10.3-4.6v6.8l0,3.7h0v0.8
			c0,0,1.7,0,3.6-0.6C16,22.7,19.5,24.8,24,23.7z"/>
		<path fill="#82BC43" d="M11.3,4.4c3.8,0,6.9,3.1,6.9,6.9c0,0.6-0.1,1.2-0.2,1.7l4,1.8c0.4-1.1,0.6-2.3,0.6-3.5
			c0-6.2-5-11.3-11.3-11.3C5,0,0,5.1,0,11.3c0,5.8,4.4,10.6,10.1,11.2v-4.4c-3.3-0.5-5.7-3.4-5.7-6.8C4.4,7.5,7.5,4.4,11.3,4.4z"/>
	</g>
</g>
</svg>
